<svg width="13" height="15" viewBox="0 0 13 15" fill="none" xmlns="http://www.w3.org/2000/svg">
<path d="M8.5 0C9.76229 0.000249566 10.7852 1.02379 10.7852 2.28613V6.28613H12C12.3159 6.28638 12.5713 6.5415 12.5713 6.85742V13.7148C12.571 14.0306 12.3157 14.2859 12 14.2861H0.571289C0.255368 14.2861 0.000242724 14.0307 0 13.7148V6.85742C0 6.54135 0.255218 6.28613 0.571289 6.28613H1.78516V2.28613C1.78516 1.02363 2.80879 0 4.07129 0H8.5ZM1.28516 7.57129V13H11.2852V7.57129H1.28516ZM6.28516 8.96387C6.46662 8.96387 6.64338 9.02204 6.79004 9.12891C6.93661 9.23572 7.04596 9.38597 7.10156 9.55859C7.15714 9.7313 7.15638 9.91753 7.09961 10.0898C7.04282 10.2621 6.9325 10.4118 6.78516 10.5176V11.4648C6.78491 11.5431 6.72092 11.6073 6.64258 11.6074H5.92773C5.84948 11.6072 5.7854 11.5431 5.78516 11.4648V10.5176C5.63787 10.4118 5.52748 10.2621 5.4707 10.0898C5.41395 9.91755 5.41318 9.73128 5.46875 9.55859C5.52433 9.386 5.63375 9.23573 5.78027 9.12891C5.9269 9.02206 6.10373 8.96389 6.28516 8.96387ZM4.07129 1.28613C3.5195 1.28613 3.07129 1.73435 3.07129 2.28613V6.28613H9.5V2.28613C9.5 1.7345 9.05157 1.28638 8.5 1.28613H4.07129Z" fill="#00FF00"/>
</svg>
